<!-- Generated by IcoMoon.io -->
<svg version="1.1" xmlns="http://www.w3.org/2000/svg" width="30" height="30" viewBox="0 0 30 30">
<title>bookmark</title>
<path d="M23.024 27.268c0.201 0.145 0.454 0.233 0.726 0.233 0.69 0 1.25-0.56 1.25-1.25v-20c0-1.035-0.421-1.975-1.099-2.651s-1.616-1.099-2.651-1.099h-12.5c-1.035 0-1.975 0.421-2.651 1.099s-1.099 1.616-1.099 2.651v20c-0.001 0.249 0.075 0.505 0.233 0.726 0.401 0.561 1.183 0.692 1.744 0.29l8.024-5.73zM22.5 23.821l-6.774-4.839c-0.444-0.317-1.024-0.302-1.453 0l-6.774 4.839v-17.571c0-0.345 0.139-0.656 0.366-0.884s0.539-0.366 0.884-0.366h12.5c0.345 0 0.656 0.139 0.884 0.366s0.366 0.539 0.366 0.884z"></path>
</svg>
