<!-- Generated by IcoMoon.io -->
<svg version="1.1" xmlns="http://www.w3.org/2000/svg" width="30" height="30" viewBox="0 0 30 30">
<title>check-square</title>
<path d="M10.366 14.634l3.75 3.75c0.489 0.489 1.28 0.489 1.768 0l12.5-12.5c0.489-0.489 0.489-1.28 0-1.768s-1.28-0.489-1.768 0l-11.616 11.616-2.866-2.866c-0.489-0.489-1.28-0.489-1.768 0s-0.489 1.28 0 1.768zM25 15v8.75c0 0.345-0.139 0.656-0.366 0.884s-0.539 0.366-0.884 0.366h-17.5c-0.345 0-0.656-0.139-0.884-0.366s-0.366-0.539-0.366-0.884v-17.5c0-0.345 0.139-0.656 0.366-0.884s0.539-0.366 0.884-0.366h13.75c0.69 0 1.25-0.56 1.25-1.25s-0.56-1.25-1.25-1.25h-13.75c-1.035 0-1.975 0.421-2.651 1.099s-1.099 1.616-1.099 2.651v17.5c0 1.035 0.421 1.975 1.099 2.651s1.616 1.099 2.651 1.099h17.5c1.035 0 1.975-0.421 2.651-1.099s1.099-1.616 1.099-2.651v-8.75c0-0.69-0.56-1.25-1.25-1.25s-1.25 0.56-1.25 1.25z"></path>
</svg>
