<!-- Generated by IcoMoon.io -->
<svg version="1.1" xmlns="http://www.w3.org/2000/svg" width="30" height="30" viewBox="0 0 30 30">
<title>cloud-drizzle</title>
<path d="M8.75 23.75v2.5c0 0.69 0.56 1.25 1.25 1.25s1.25-0.56 1.25-1.25v-2.5c0-0.69-0.56-1.25-1.25-1.25s-1.25 0.56-1.25 1.25zM8.75 16.25v2.5c0 0.69 0.56 1.25 1.25 1.25s1.25-0.56 1.25-1.25v-2.5c0-0.69-0.56-1.25-1.25-1.25s-1.25 0.56-1.25 1.25zM18.75 23.75v2.5c0 0.69 0.56 1.25 1.25 1.25s1.25-0.56 1.25-1.25v-2.5c0-0.69-0.56-1.25-1.25-1.25s-1.25 0.56-1.25 1.25zM18.75 16.25v2.5c0 0.69 0.56 1.25 1.25 1.25s1.25-0.56 1.25-1.25v-2.5c0-0.69-0.56-1.25-1.25-1.25s-1.25 0.56-1.25 1.25zM13.75 26.25v2.5c0 0.69 0.56 1.25 1.25 1.25s1.25-0.56 1.25-1.25v-2.5c0-0.69-0.56-1.25-1.25-1.25s-1.25 0.56-1.25 1.25zM13.75 18.75v2.5c0 0.69 0.56 1.25 1.25 1.25s1.25-0.56 1.25-1.25v-2.5c0-0.69-0.56-1.25-1.25-1.25s-1.25 0.56-1.25 1.25zM25.501 21.87c1.896-0.831 3.279-2.354 3.976-4.14s0.715-3.842-0.115-5.739c-0.718-1.639-1.954-2.896-3.44-3.656-1.045-0.535-2.212-0.825-3.413-0.835h-0.66c-0.906-2.571-2.679-4.635-4.894-5.941-2.479-1.461-5.519-1.978-8.526-1.201s-5.417 2.701-6.879 5.18-1.978 5.519-1.201 8.526c0.636 2.462 2.042 4.529 3.874 5.979 0.541 0.429 1.327 0.337 1.756-0.204s0.338-1.328-0.204-1.756c-1.415-1.121-2.51-2.724-3.006-4.645-0.604-2.339-0.204-4.7 0.935-6.631s3.010-3.424 5.35-4.029 4.701-0.204 6.631 0.935 3.424 3.010 4.029 5.35c0.144 0.544 0.631 0.938 1.21 0.938h1.565c0.809 0.006 1.594 0.203 2.293 0.56 0.991 0.508 1.811 1.341 2.29 2.434 0.554 1.265 0.544 2.633 0.077 3.826s-1.386 2.206-2.651 2.76c-0.632 0.277-0.92 1.014-0.644 1.646s1.014 0.92 1.646 0.644z"></path>
</svg>
