<!-- Generated by IcoMoon.io -->
<svg version="1.1" xmlns="http://www.w3.org/2000/svg" width="30" height="30" viewBox="0 0 30 30">
<title>disc</title>
<path d="M28.75 15c0-3.796-1.54-7.236-4.027-9.722s-5.926-4.027-9.722-4.027-7.236 1.54-9.722 4.027-4.027 5.926-4.027 9.722 1.54 7.236 4.027 9.722 5.926 4.027 9.722 4.027 7.236-1.54 9.722-4.027 4.027-5.926 4.027-9.722zM26.25 15c0 3.107-1.258 5.918-3.295 7.955s-4.847 3.295-7.955 3.295-5.917-1.258-7.955-3.295-3.295-4.847-3.295-7.955 1.258-5.917 3.295-7.955 4.847-3.295 7.955-3.295 5.917 1.258 7.955 3.295 3.295 4.847 3.295 7.955zM20 15c0-1.38-0.561-2.633-1.465-3.535s-2.155-1.465-3.535-1.465-2.633 0.561-3.535 1.465-1.465 2.155-1.465 3.535 0.561 2.633 1.465 3.535 2.155 1.465 3.535 1.465 2.633-0.561 3.535-1.465 1.465-2.155 1.465-3.535zM17.5 15c0 0.691-0.279 1.314-0.733 1.768s-1.076 0.733-1.768 0.733-1.314-0.279-1.768-0.733-0.733-1.076-0.733-1.768 0.279-1.314 0.733-1.768 1.076-0.733 1.768-0.733 1.314 0.279 1.768 0.733 0.733 1.076 0.733 1.768z"></path>
</svg>
