<!-- Generated by IcoMoon.io -->
<svg version="1.1" xmlns="http://www.w3.org/2000/svg" width="30" height="30" viewBox="0 0 30 30">
<title>external-link</title>
<path d="M21.25 16.25v7.5c0 0.345-0.139 0.656-0.366 0.884s-0.539 0.366-0.884 0.366h-13.75c-0.345 0-0.656-0.139-0.884-0.366s-0.366-0.539-0.366-0.884v-13.75c0-0.345 0.139-0.656 0.366-0.884s0.539-0.366 0.884-0.366h7.5c0.69 0 1.25-0.56 1.25-1.25s-0.56-1.25-1.25-1.25h-7.5c-1.035 0-1.975 0.421-2.651 1.099s-1.099 1.616-1.099 2.651v13.75c0 1.035 0.421 1.975 1.099 2.651s1.616 1.099 2.651 1.099h13.75c1.035 0 1.975-0.421 2.651-1.099s1.099-1.616 1.099-2.651v-7.5c0-0.69-0.56-1.25-1.25-1.25s-1.25 0.56-1.25 1.25zM13.384 18.384l11.616-11.616v4.483c0 0.69 0.56 1.25 1.25 1.25s1.25-0.56 1.25-1.25v-7.5c0-0.17-0.034-0.331-0.095-0.479s-0.151-0.285-0.27-0.404c-0.001-0.001-0.001-0.001-0.002-0.002-0.115-0.115-0.253-0.208-0.404-0.27-0.148-0.061-0.309-0.095-0.479-0.095h-7.5c-0.69 0-1.25 0.56-1.25 1.25s0.56 1.25 1.25 1.25h4.483l-11.616 11.616c-0.489 0.489-0.489 1.28 0 1.768s1.28 0.489 1.768 0z"></path>
</svg>
