<!-- Generated by IcoMoon.io -->
<svg version="1.1" xmlns="http://www.w3.org/2000/svg" width="30" height="30" viewBox="0 0 30 30">
<title>eye-off</title>
<path d="M12.66 6.518c0.814-0.19 1.619-0.276 2.325-0.268 2.198 0 4.136 0.699 5.822 1.741 1.399 0.865 2.611 1.959 3.617 3.060 0.805 0.881 1.469 1.756 1.981 2.501 0.409 0.594 0.713 1.093 0.916 1.444-0.683 1.191-1.45 2.276-2.222 3.178-0.449 0.524-0.389 1.314 0.135 1.762s1.314 0.389 1.762-0.135c1.022-1.192 2.014-2.64 2.854-4.213 0.185-0.349 0.204-0.773 0.016-1.149 0 0-0.495-0.986-1.4-2.304-0.564-0.82-1.298-1.79-2.196-2.773-1.117-1.224-2.505-2.484-4.149-3.5-1.994-1.231-4.382-2.114-7.108-2.114-0.917-0.011-1.925 0.099-2.925 0.332-0.673 0.158-1.090 0.83-0.932 1.502s0.83 1.090 1.502 0.932zM12.534 14.303l3.164 3.164c-0.227 0.076-0.465 0.118-0.704 0.126-0.641 0.023-1.288-0.199-1.793-0.67s-0.771-1.1-0.794-1.741c-0.010-0.298 0.031-0.595 0.126-0.88zM7.479 9.246l3.191 3.191c-0.542 0.864-0.795 1.855-0.76 2.833 0.045 1.277 0.579 2.541 1.589 3.481s2.308 1.384 3.585 1.339c0.865-0.030 1.724-0.285 2.48-0.76l2.902 2.902c-1.723 0.999-3.619 1.495-5.48 1.517-2.167 0-4.106-0.699-5.792-1.741-1.399-0.865-2.611-1.959-3.617-3.060-0.805-0.881-1.469-1.756-1.981-2.501-0.407-0.594-0.713-1.091-0.915-1.442 1.313-2.278 2.97-4.224 4.801-5.759zM0.366 2.134l5.339 5.339c-2.164 1.849-4.086 4.198-5.556 6.936-0.185 0.349-0.205 0.774-0.016 1.15 0 0 0.495 0.986 1.4 2.304 0.564 0.82 1.297 1.79 2.196 2.773 1.118 1.224 2.505 2.484 4.149 3.5 1.994 1.232 4.382 2.115 7.138 2.115 2.491-0.030 5.024-0.751 7.269-2.199l5.582 5.582c0.489 0.489 1.28 0.489 1.768 0s0.489-1.28 0-1.768l-11.095-11.095c-0.002-0.002-0.006-0.006-0.009-0.009l-5.261-5.263c-0.010-0.009-0.020-0.020-0.030-0.030l-11.105-11.104c-0.489-0.489-1.28-0.489-1.768 0s-0.489 1.28 0 1.768z"></path>
</svg>
