<!-- Generated by IcoMoon.io -->
<svg version="1.1" xmlns="http://www.w3.org/2000/svg" width="30" height="30" viewBox="0 0 30 30">
<title>eye</title>
<path d="M0.133 14.441c-0.17 0.343-0.182 0.754 0 1.117 0 0 0.495 0.986 1.4 2.304 0.564 0.82 1.297 1.79 2.196 2.773 1.118 1.224 2.505 2.484 4.149 3.5 1.994 1.232 4.382 2.115 7.123 2.115s5.129-0.883 7.123-2.115c1.644-1.016 3.031-2.276 4.149-3.5 0.898-0.982 1.633-1.952 2.196-2.773 0.905-1.318 1.4-2.304 1.4-2.304 0.17-0.343 0.182-0.754 0-1.117 0 0-0.495-0.986-1.4-2.304-0.564-0.82-1.298-1.79-2.196-2.773-1.117-1.224-2.505-2.484-4.149-3.5-1.994-1.232-4.382-2.115-7.123-2.115s-5.129 0.883-7.123 2.115c-1.644 1.016-3.031 2.276-4.149 3.5-0.899 0.982-1.633 1.951-2.196 2.773-0.905 1.318-1.4 2.304-1.4 2.304zM2.675 15c0.204-0.351 0.509-0.851 0.917-1.447 0.512-0.745 1.175-1.62 1.981-2.501 1.006-1.101 2.219-2.195 3.617-3.060 1.688-1.043 3.626-1.741 5.809-1.741s4.121 0.699 5.807 1.741c1.399 0.865 2.611 1.959 3.617 3.060 0.805 0.881 1.469 1.756 1.981 2.501 0.41 0.596 0.715 1.095 0.917 1.447-0.204 0.351-0.509 0.851-0.917 1.448-0.512 0.745-1.175 1.62-1.981 2.501-1.006 1.101-2.219 2.195-3.617 3.060-1.686 1.043-3.625 1.741-5.807 1.741s-4.121-0.699-5.807-1.741c-1.399-0.865-2.611-1.959-3.617-3.060-0.805-0.881-1.469-1.756-1.981-2.501-0.41-0.596-0.715-1.096-0.919-1.448zM20 15c0-1.38-0.561-2.633-1.465-3.535s-2.155-1.465-3.535-1.465-2.633 0.561-3.535 1.465-1.465 2.155-1.465 3.535 0.561 2.633 1.465 3.535 2.155 1.465 3.535 1.465 2.633-0.561 3.535-1.465 1.465-2.155 1.465-3.535zM17.5 15c0 0.691-0.279 1.314-0.733 1.768s-1.076 0.733-1.768 0.733-1.314-0.279-1.768-0.733-0.733-1.076-0.733-1.768 0.279-1.314 0.733-1.768 1.076-0.733 1.768-0.733 1.314 0.279 1.768 0.733 0.733 1.076 0.733 1.768z"></path>
</svg>
