<!-- Generated by IcoMoon.io -->
<svg version="1.1" xmlns="http://www.w3.org/2000/svg" width="30" height="30" viewBox="0 0 30 30">
<title>facebook</title>
<path d="M21.25 3.75v2.5h-2.5c-0.69 0-1.316 0.281-1.768 0.733s-0.733 1.078-0.733 1.768v3.75c0 0.69 0.56 1.25 1.25 1.25h3.399l-0.625 2.5h-2.774c-0.69 0-1.25 0.56-1.25 1.25v8.75h-2.5v-8.75c0-0.69-0.56-1.25-1.25-1.25h-2.5v-2.5h2.5c0.69 0 1.25-0.56 1.25-1.25v-3.75c0-1.381 0.559-2.629 1.465-3.535s2.154-1.465 3.535-1.465zM22.5 1.25h-3.75c-2.071 0-3.947 0.841-5.304 2.196s-2.196 3.233-2.196 5.304v2.5h-2.5c-0.69 0-1.25 0.56-1.25 1.25v5c0 0.69 0.56 1.25 1.25 1.25h2.5v8.75c0 0.69 0.56 1.25 1.25 1.25h5c0.69 0 1.25-0.56 1.25-1.25v-8.75h2.5c0.583 0 1.073-0.399 1.213-0.946l1.25-5c0.167-0.67-0.24-1.349-0.91-1.516-0.104-0.026-0.209-0.039-0.302-0.037h-3.75v-2.5h3.75c0.69 0 1.25-0.56 1.25-1.25v-5c0-0.69-0.56-1.25-1.25-1.25z"></path>
</svg>
