<!-- Generated by IcoMoon.io -->
<svg version="1.1" xmlns="http://www.w3.org/2000/svg" width="30" height="30" viewBox="0 0 30 30">
<title>feather</title>
<path d="M22.639 19.74c0.086-0.066 0.163-0.144 0.229-0.23l3.316-3.326c1.709-1.709 2.564-3.951 2.564-6.19s-0.855-4.481-2.564-6.19-3.951-2.564-6.19-2.564-4.481 0.855-6.19 2.564l-8.438 8.438c-0.244 0.244-0.366 0.564-0.366 0.884v10.108l-3.384 3.384c-0.489 0.489-0.489 1.28 0 1.768s1.28 0.489 1.768 0l3.384-3.384h10.108c0.346 0 0.659-0.14 0.885-0.367zM11.768 20h7.081l-2.492 2.5h-7.089zM21.341 17.5h-7.074l6.616-6.616c0.489-0.489 0.489-1.28 0-1.768s-1.28-0.489-1.768 0l-11.616 11.616v-7.090l8.071-8.071c1.221-1.221 2.82-1.831 4.423-1.831s3.201 0.61 4.423 1.831 1.831 2.82 1.831 4.423-0.61 3.201-1.831 4.423z"></path>
</svg>
