<svg version="1.1" xmlns="http://www.w3.org/2000/svg" width="30" height="30" viewBox="0 0 30 30">
<title>folder</title>
<path d="M28.75 23.75v-13.75c0-1.035-0.421-1.975-1.099-2.651s-1.616-1.099-2.651-1.099h-10.581l-2.129-3.194c-0.227-0.337-0.607-0.556-1.040-0.556h-6.25c-1.035 0-1.975 0.421-2.651 1.099s-1.099 1.616-1.099 2.651v17.5c0 1.035 0.421 1.975 1.099 2.651s1.616 1.099 2.651 1.099h20c1.035 0 1.975-0.421 2.651-1.099s1.099-1.616 1.099-2.651zM26.25 23.75c0 0.345-0.139 0.656-0.366 0.884s-0.539 0.366-0.884 0.366h-20c-0.345 0-0.656-0.139-0.884-0.366s-0.366-0.539-0.366-0.884v-17.5c0-0.345 0.139-0.656 0.366-0.884s0.539-0.366 0.884-0.366h5.581l2.129 3.194c0.24 0.359 0.632 0.554 1.040 0.556h11.25c0.345 0 0.656 0.139 0.884 0.366s0.366 0.539 0.366 0.884z"></path>
</svg>
