<!-- Generated by IcoMoon.io -->
<svg version="1.1" xmlns="http://www.w3.org/2000/svg" width="30" height="30" viewBox="0 0 30 30">
<title>gift</title>
<path d="M13.75 16.25v10h-7.5v-10zM16.25 26.25v-10h7.5v10zM9.375 7.5c-0.518 0-0.985-0.209-1.326-0.549s-0.549-0.809-0.549-1.326 0.209-0.985 0.549-1.326 0.809-0.549 1.326-0.549c0.786 0 1.427 0.279 1.98 0.733 0.47 0.385 0.876 0.899 1.22 1.471 0.301 0.501 0.541 1.026 0.725 1.504zM16.682 7.5c0.201-0.52 0.441-1.045 0.741-1.546 0.344-0.574 0.751-1.086 1.22-1.471 0.554-0.454 1.195-0.733 1.981-0.733 0.517 0 0.985 0.209 1.326 0.549s0.549 0.809 0.549 1.326-0.209 0.985-0.549 1.326-0.809 0.549-1.326 0.549zM13.75 10v3.75h-10v-3.75h5.625zM24.579 7.5c0.27-0.569 0.421-1.204 0.421-1.875 0-1.208-0.491-2.304-1.281-3.094s-1.886-1.281-3.094-1.281c-1.45 0-2.636 0.538-3.565 1.299-0.754 0.617-1.335 1.379-1.779 2.117-0.1 0.166-0.194 0.332-0.281 0.497-0.088-0.165-0.181-0.331-0.281-0.497-0.444-0.739-1.025-1.5-1.779-2.117-0.929-0.761-2.115-1.299-3.565-1.299-1.207 0-2.304 0.491-3.094 1.281s-1.281 1.886-1.281 3.094c0 0.671 0.151 1.306 0.421 1.875h-2.921c-0.69 0-1.25 0.56-1.25 1.25v6.25c0 0.69 0.56 1.25 1.25 1.25h1.25v11.25c0 0.69 0.56 1.25 1.25 1.25h20c0.69 0 1.25-0.56 1.25-1.25v-11.25h1.25c0.69 0 1.25-0.56 1.25-1.25v-6.25c0-0.69-0.56-1.25-1.25-1.25zM16.25 10h10v3.75h-10z"></path>
</svg>
