<!-- Generated by IcoMoon.io -->
<svg version="1.1" xmlns="http://www.w3.org/2000/svg" width="30" height="30" viewBox="0 0 30 30">
<title>hash</title>
<path d="M17.77 12.5l-0.555 5h-4.985l0.555-5zM18.758 3.613l-0.71 6.388h-4.985l0.679-6.112c0.076-0.686-0.419-1.304-1.104-1.38s-1.304 0.419-1.38 1.105l-0.71 6.388h-5.548c-0.69 0-1.25 0.56-1.25 1.25s0.56 1.25 1.25 1.25h5.27l-0.555 5h-4.715c-0.69 0-1.25 0.56-1.25 1.25s0.56 1.25 1.25 1.25h4.436l-0.679 6.113c-0.076 0.686 0.419 1.304 1.104 1.38s1.304-0.419 1.38-1.104l0.711-6.389h4.985l-0.679 6.112c-0.076 0.686 0.419 1.304 1.104 1.38s1.304-0.419 1.38-1.104l0.71-6.389h5.548c0.69 0 1.25-0.56 1.25-1.25s-0.56-1.25-1.25-1.25h-5.27l0.555-5h4.715c0.69 0 1.25-0.56 1.25-1.25s-0.56-1.25-1.25-1.25h-4.436l0.679-6.113c0.076-0.686-0.419-1.304-1.104-1.38s-1.304 0.419-1.38 1.104z"></path>
</svg>
