<!-- Generated by IcoMoon.io -->
<svg version="1.1" xmlns="http://www.w3.org/2000/svg" width="30" height="30" viewBox="0 0 30 30">
<title>heart</title>
<path d="M25.166 6.646c1.1 1.101 1.649 2.539 1.649 3.98s-0.55 2.879-1.649 3.977l-10.166 10.166-10.166-10.166c-1.099-1.099-1.648-2.536-1.648-3.979s0.549-2.88 1.648-3.979 2.536-1.648 3.979-1.648 2.88 0.549 3.979 1.648l1.325 1.325c0.489 0.489 1.28 0.489 1.768 0l1.328-1.328c1.099-1.099 2.536-1.648 3.977-1.646s2.879 0.55 3.977 1.649zM26.934 4.879c-1.586-1.586-3.668-2.38-5.745-2.381s-4.159 0.793-5.746 2.379l-0.443 0.444-0.441-0.441c-1.586-1.586-3.669-2.38-5.746-2.38s-4.16 0.794-5.746 2.38-2.38 3.669-2.38 5.746 0.794 4.16 2.38 5.746l11.050 11.050c0.489 0.489 1.28 0.489 1.768 0l11.050-11.050c1.586-1.586 2.38-3.667 2.381-5.745s-0.793-4.159-2.381-5.747z"></path>
</svg>
