<!-- Generated by IcoMoon.io -->
<svg version="1.1" xmlns="http://www.w3.org/2000/svg" width="30" height="30" viewBox="0 0 30 30">
<title>help-circle</title>
<path d="M28.75 15c0-3.796-1.54-7.236-4.027-9.722s-5.926-4.027-9.722-4.027-7.236 1.54-9.722 4.027-4.027 5.926-4.027 9.722 1.54 7.236 4.027 9.722 5.926 4.027 9.722 4.027 7.236-1.54 9.722-4.027 4.027-5.926 4.027-9.722zM26.25 15c0 3.107-1.258 5.918-3.295 7.955s-4.847 3.295-7.955 3.295-5.917-1.258-7.955-3.295-3.295-4.847-3.295-7.955 1.258-5.917 3.295-7.955 4.847-3.295 7.955-3.295 5.917 1.258 7.955 3.295 3.295 4.847 3.295 7.955zM12.541 11.665c0.229-0.651 0.699-1.148 1.277-1.425s1.259-0.334 1.91-0.104c0.572 0.201 1.024 0.587 1.313 1.074 0.229 0.384 0.356 0.831 0.358 1.296 0 0.194-0.049 0.386-0.146 0.58-0.1 0.2-0.254 0.406-0.46 0.613-0.886 0.886-2.289 1.365-2.289 1.365-0.655 0.219-1.009 0.926-0.79 1.581s0.926 1.009 1.581 0.79c0 0 1.93-0.632 3.266-1.969 0.349-0.349 0.681-0.767 0.929-1.262 0.25-0.5 0.41-1.072 0.41-1.711-0.005-0.914-0.255-1.796-0.709-2.561-0.579-0.973-1.487-1.753-2.631-2.155-1.303-0.457-2.669-0.344-3.821 0.209s-2.098 1.547-2.555 2.85c-0.23 0.651 0.112 1.365 0.764 1.594s1.365-0.114 1.594-0.764zM16.25 21.25c0-0.69-0.56-1.25-1.25-1.25s-1.25 0.56-1.25 1.25 0.56 1.25 1.25 1.25 1.25-0.56 1.25-1.25z"></path>
</svg>
