<!-- Generated by IcoMoon.io -->
<svg version="1.1" xmlns="http://www.w3.org/2000/svg" width="30" height="30" viewBox="0 0 30 30">
<title>image</title>
<path d="M6.25 2.5c-1.035 0-1.975 0.421-2.651 1.099s-1.099 1.616-1.099 2.651v17.5c0 1.035 0.421 1.975 1.099 2.651s1.616 1.099 2.651 1.099h17.5c1.035 0 1.975-0.421 2.651-1.099s1.099-1.616 1.099-2.651v-17.5c0-1.035-0.421-1.975-1.099-2.651s-1.616-1.099-2.651-1.099zM13.75 10.625c0-0.862-0.351-1.645-0.915-2.21s-1.348-0.915-2.21-0.915-1.645 0.351-2.21 0.915-0.915 1.348-0.915 2.21 0.351 1.645 0.915 2.21 1.348 0.915 2.21 0.915 1.645-0.351 2.21-0.915 0.915-1.348 0.915-2.21zM11.25 10.625c0 0.172-0.069 0.328-0.182 0.443s-0.27 0.182-0.443 0.182-0.328-0.069-0.442-0.182-0.182-0.27-0.182-0.443 0.069-0.328 0.182-0.442 0.27-0.182 0.442-0.182 0.328 0.069 0.443 0.182 0.182 0.27 0.182 0.442zM9.268 25l10.733-10.732 5 5v4.483c0 0.345-0.139 0.656-0.366 0.884s-0.539 0.366-0.884 0.366zM25 15.733l-4.116-4.116c-0.489-0.489-1.28-0.489-1.768 0l-13.305 13.305c-0.169-0.062-0.319-0.161-0.445-0.287-0.227-0.227-0.366-0.539-0.366-0.884v-17.5c0-0.345 0.139-0.656 0.366-0.884s0.539-0.366 0.884-0.366h17.5c0.345 0 0.656 0.139 0.884 0.366s0.366 0.539 0.366 0.884z"></path>
</svg>
