<!-- Generated by IcoMoon.io -->
<svg version="1.1" xmlns="http://www.w3.org/2000/svg" width="30" height="30" viewBox="0 0 30 30">
<title>instagram</title>
<path d="M8.75 1.25c-2.071 0-3.947 0.841-5.304 2.196s-2.196 3.233-2.196 5.304v12.5c0 2.071 0.841 3.947 2.196 5.304s3.232 2.196 5.304 2.196h12.5c2.071 0 3.947-0.841 5.304-2.196s2.196-3.232 2.196-5.304v-12.5c0-2.071-0.841-3.947-2.196-5.304s-3.232-2.196-5.304-2.196zM8.75 3.75h12.5c1.381 0 2.629 0.559 3.535 1.465s1.465 2.154 1.465 3.535v12.5c0 1.381-0.559 2.629-1.465 3.535s-2.154 1.465-3.535 1.465h-12.5c-1.381 0-2.629-0.559-3.535-1.465s-1.465-2.154-1.465-3.535v-12.5c0-1.381 0.559-2.629 1.465-3.535s2.154-1.465 3.535-1.465zM21.236 14.029c-0.188-1.215-0.714-2.321-1.492-3.209-0.943-1.076-2.255-1.831-3.761-2.055-0.58-0.092-1.213-0.096-1.846-0.002-1.708 0.253-3.151 1.176-4.103 2.459s-1.416 2.934-1.163 4.64 1.176 3.151 2.459 4.103 2.934 1.416 4.64 1.162 3.151-1.176 4.103-2.459 1.416-2.934 1.162-4.64zM18.764 14.396c0.152 1.025-0.125 2.011-0.697 2.784s-1.438 1.324-2.461 1.475-2.011-0.125-2.784-0.698-1.324-1.438-1.475-2.461 0.125-2.011 0.697-2.784 1.438-1.324 2.461-1.475c0.391-0.058 0.769-0.052 1.088-0.002 0.925 0.137 1.708 0.587 2.273 1.232 0.469 0.535 0.787 1.204 0.9 1.929zM23.125 8.125c0-0.69-0.56-1.25-1.25-1.25s-1.25 0.56-1.25 1.25 0.56 1.25 1.25 1.25 1.25-0.56 1.25-1.25z"></path>
</svg>
