<!-- Generated by IcoMoon.io -->
<svg version="1.1" xmlns="http://www.w3.org/2000/svg" width="30" height="30" viewBox="0 0 30 30">
<title>key</title>
<path d="M23.75 6.767l1.982 1.982-2.608 2.608-1.982-1.982zM13.36 15.404c1.105 1.091 1.664 2.525 1.674 3.965 0.010 1.441-0.53 2.882-1.621 3.989s-2.525 1.665-3.966 1.674-2.882-0.53-3.989-1.621l-0.053-0.053c-1.093-1.106-1.631-2.548-1.621-3.989s0.569-2.875 1.674-3.966c1.099-1.084 2.529-1.624 3.961-1.62 1.426 0.002 2.848 0.544 3.94 1.62zM22.866 4.116c-0.489 0.489-0.489 1.28 0 1.768l0.884 0.884 1.768-1.768-0.884-0.884c-0.489-0.489-1.28-0.489-1.768 0zM22.866 4.116c-0.489 0.489-0.489 1.28 0 1.768s1.28 0.489 1.768 0 0.489-1.28 0-1.768-1.28-0.489-1.768 0l-4.375 4.375c-0.489 0.489-0.489 1.28 0 1.768l0.884 0.884 1.768-1.768-0.884-0.884c-0.489-0.489-1.28-0.489-1.768 0s-0.489 1.28 0 1.768 1.28 0.489 1.768 0 0.489-1.28 0-1.768-1.28-0.489-1.768 0l-4.326 4.326c-1.411-1.020-3.077-1.532-4.741-1.536-2.065-0.004-4.135 0.775-5.721 2.341-1.596 1.575-2.404 3.651-2.419 5.729s0.766 4.165 2.341 5.761l0.077 0.077c1.596 1.575 3.684 2.355 5.761 2.341s4.154-0.821 5.729-2.419 2.355-3.684 2.341-5.761c-0.011-1.681-0.542-3.361-1.591-4.776l3.433-3.433 2.866 2.866c0.489 0.489 1.28 0.489 1.768 0l4.375-4.375c0.489-0.489 0.489-1.28 0-1.768l-2.866-2.866 1.616-1.616c0.489-0.489 0.489-1.28 0-1.768s-1.28-0.489-1.768 0z"></path>
</svg>
