<!-- Generated by IcoMoon.io -->
<svg version="1.1" xmlns="http://www.w3.org/2000/svg" width="30" height="30" viewBox="0 0 30 30">
<title>link</title>
<path d="M11.499 16.999c1.24 1.659 3.037 2.657 4.935 2.931s3.904-0.178 5.563-1.418c0.299-0.224 0.581-0.469 0.819-0.71l3.744-3.743c1.454-1.505 2.152-3.439 2.12-5.356s-0.799-3.826-2.289-5.264c-1.465-1.415-3.361-2.115-5.249-2.104-1.865 0.010-3.729 0.714-5.171 2.104l-2.164 2.151c-0.49 0.486-0.493 1.279-0.005 1.768s1.279 0.493 1.768 0.005l2.136-2.124c0.962-0.928 2.204-1.396 3.45-1.404 1.261-0.007 2.521 0.459 3.497 1.402 0.994 0.96 1.504 2.229 1.526 3.51s-0.444 2.567-1.387 3.545l-3.756 3.758c-0.143 0.145-0.329 0.309-0.535 0.463-1.106 0.827-2.44 1.127-3.709 0.945s-2.464-0.848-3.29-1.954c-0.414-0.553-1.196-0.666-1.75-0.253s-0.666 1.196-0.253 1.75zM18.501 13.001c-1.24-1.659-3.038-2.657-4.935-2.931s-3.905 0.178-5.564 1.418c-0.299 0.224-0.58 0.469-0.819 0.71l-3.744 3.742c-1.454 1.505-2.152 3.439-2.12 5.356s0.799 3.826 2.289 5.264c1.465 1.415 3.361 2.115 5.249 2.104 1.865-0.010 3.729-0.714 5.171-2.104l2.154-2.154c0.489-0.489 0.489-1.28 0-1.768s-1.28-0.489-1.768 0l-2.12 2.124c-0.962 0.928-2.204 1.396-3.45 1.404-1.261 0.008-2.521-0.459-3.497-1.402-0.994-0.96-1.504-2.229-1.526-3.51s0.444-2.567 1.387-3.545l3.756-3.757c0.142-0.145 0.329-0.309 0.535-0.463 1.106-0.827 2.44-1.127 3.709-0.945s2.464 0.848 3.29 1.954c0.414 0.553 1.196 0.666 1.75 0.253s0.666-1.196 0.253-1.75z"></path>
</svg>
