<!-- Generated by IcoMoon.io -->
<svg version="1.1" xmlns="http://www.w3.org/2000/svg" width="30" height="30" viewBox="0 0 30 30">
<title>loader</title>
<path d="M13.75 2.5v5c0 0.69 0.56 1.25 1.25 1.25s1.25-0.56 1.25-1.25v-5c0-0.69-0.56-1.25-1.25-1.25s-1.25 0.56-1.25 1.25zM13.75 22.5v5c0 0.69 0.56 1.25 1.25 1.25s1.25-0.56 1.25-1.25v-5c0-0.69-0.56-1.25-1.25-1.25s-1.25 0.56-1.25 1.25zM5.279 7.046l3.538 3.538c0.489 0.489 1.28 0.489 1.768 0s0.489-1.28 0-1.768l-3.538-3.538c-0.489-0.489-1.28-0.489-1.768 0s-0.489 1.28 0 1.768zM19.416 21.184l3.538 3.538c0.489 0.489 1.28 0.489 1.768 0s0.489-1.28 0-1.768l-3.538-3.538c-0.489-0.489-1.28-0.489-1.768 0s-0.489 1.28 0 1.768zM2.5 16.25h5c0.69 0 1.25-0.56 1.25-1.25s-0.56-1.25-1.25-1.25h-5c-0.69 0-1.25 0.56-1.25 1.25s0.56 1.25 1.25 1.25zM22.5 16.25h5c0.69 0 1.25-0.56 1.25-1.25s-0.56-1.25-1.25-1.25h-5c-0.69 0-1.25 0.56-1.25 1.25s0.56 1.25 1.25 1.25zM7.046 24.721l3.538-3.538c0.489-0.489 0.489-1.28 0-1.768s-1.28-0.489-1.768 0l-3.538 3.538c-0.489 0.489-0.489 1.28 0 1.768s1.28 0.489 1.768 0zM21.184 10.584l3.538-3.538c0.489-0.489 0.489-1.28 0-1.768s-1.28-0.489-1.768 0l-3.538 3.538c-0.489 0.489-0.489 1.28 0 1.768s1.28 0.489 1.768 0z"></path>
</svg>
