<!-- Generated by IcoMoon.io -->
<svg version="1.1" xmlns="http://www.w3.org/2000/svg" width="30" height="30" viewBox="0 0 30 30">
<title>map-pin</title>
<path d="M27.5 12.5c0-3.451-1.4-6.579-3.661-8.839s-5.387-3.661-8.839-3.661-6.579 1.4-8.839 3.661-3.661 5.387-3.661 8.839c0 0.711 0.066 1.41 0.188 2.095 0.343 1.935 1.124 3.755 2.102 5.4 3.415 5.739 9.516 9.795 9.516 9.795 0.414 0.271 0.956 0.286 1.386 0 0 0 6.103-4.056 9.516-9.795 0.979-1.645 1.76-3.465 2.102-5.4 0.122-0.685 0.189-1.384 0.189-2.095zM25 12.5c0 0.555-0.051 1.109-0.149 1.66-0.276 1.562-0.921 3.097-1.79 4.558-2.44 4.1-6.457 7.314-8.061 8.499-1.605-1.185-5.621-4.399-8.061-8.499-0.869-1.46-1.514-2.995-1.79-4.558-0.098-0.551-0.149-1.105-0.149-1.66 0-2.761 1.117-5.26 2.929-7.071s4.31-2.929 7.071-2.929 5.26 1.117 7.071 2.929 2.929 4.31 2.929 7.071zM20 12.5c0-1.38-0.561-2.632-1.465-3.535s-2.155-1.465-3.535-1.465-2.633 0.561-3.535 1.465-1.465 2.155-1.465 3.535 0.561 2.632 1.465 3.535 2.155 1.465 3.535 1.465 2.633-0.561 3.535-1.465 1.465-2.155 1.465-3.535zM17.5 12.5c0 0.691-0.279 1.314-0.733 1.768s-1.076 0.733-1.768 0.733-1.314-0.279-1.768-0.733-0.733-1.076-0.733-1.768 0.279-1.314 0.733-1.768 1.076-0.733 1.768-0.733 1.314 0.279 1.768 0.733 0.733 1.076 0.733 1.768z"></path>
</svg>
