<!-- Generated by IcoMoon.io -->
<svg version="1.1" xmlns="http://www.w3.org/2000/svg" width="30" height="30" viewBox="0 0 30 30">
<title>menu</title>
<path d="M3.75 16.25h22.5c0.69 0 1.25-0.56 1.25-1.25s-0.56-1.25-1.25-1.25h-22.5c-0.69 0-1.25 0.56-1.25 1.25s0.56 1.25 1.25 1.25zM3.75 8.75h22.5c0.69 0 1.25-0.56 1.25-1.25s-0.56-1.25-1.25-1.25h-22.5c-0.69 0-1.25 0.56-1.25 1.25s0.56 1.25 1.25 1.25zM3.75 23.75h22.5c0.69 0 1.25-0.56 1.25-1.25s-0.56-1.25-1.25-1.25h-22.5c-0.69 0-1.25 0.56-1.25 1.25s0.56 1.25 1.25 1.25z"></path>
</svg>
