<!-- Generated by IcoMoon.io -->
<svg version="1.1" xmlns="http://www.w3.org/2000/svg" width="30" height="30" viewBox="0 0 30 30">
<title>message-circle</title>
<path d="M27.5 14.371v-0.621c0-0.021-0.001-0.047-0.002-0.073-0.17-2.923-1.391-5.576-3.304-7.564-2.002-2.084-4.768-3.44-7.876-3.611-0.019-0.001-0.044-0.002-0.067-0.002h-0.611c-1.756-0.020-3.602 0.388-5.33 1.26-1.529 0.778-2.864 1.861-3.924 3.17-1.652 2.041-2.634 4.63-2.635 7.431-0.017 1.594 0.316 3.262 1.030 4.846l-2.215 6.646c-0.083 0.245-0.090 0.523 0 0.79 0.219 0.655 0.926 1.009 1.581 0.79l6.643-2.214c1.45 0.659 3.105 1.033 4.845 1.029 1.715-0.011 3.394-0.385 4.926-1.082 2.39-1.089 4.425-2.966 5.675-5.469 0.805-1.561 1.269-3.394 1.264-5.326zM25 14.379c0.004 1.531-0.365 2.969-0.986 4.174-1.001 2.002-2.602 3.48-4.49 4.34-1.213 0.553-2.545 0.849-3.907 0.859-1.526 0.004-2.964-0.365-4.169-0.986-0.311-0.161-0.66-0.178-0.969-0.075l-4.754 1.585 1.585-4.754c0.11-0.329 0.075-0.671-0.070-0.959-0.69-1.369-1.005-2.819-0.99-4.174 0.001-2.236 0.774-4.274 2.078-5.886 0.839-1.035 1.898-1.896 3.114-2.512 1.365-0.69 2.815-1.005 4.17-0.99h0.57c2.453 0.134 4.63 1.201 6.211 2.845 1.502 1.564 2.465 3.645 2.608 5.942z"></path>
</svg>
