<!-- Generated by IcoMoon.io -->
<svg version="1.1" xmlns="http://www.w3.org/2000/svg" width="30" height="30" viewBox="0 0 30 30">
<title>minus-square</title>
<path d="M6.25 2.5c-1.035 0-1.975 0.421-2.651 1.099s-1.099 1.616-1.099 2.651v17.5c0 1.035 0.421 1.975 1.099 2.651s1.616 1.099 2.651 1.099h17.5c1.035 0 1.975-0.421 2.651-1.099s1.099-1.616 1.099-2.651v-17.5c0-1.035-0.421-1.975-1.099-2.651s-1.616-1.099-2.651-1.099zM6.25 5h17.5c0.345 0 0.656 0.139 0.884 0.366s0.366 0.539 0.366 0.884v17.5c0 0.345-0.139 0.656-0.366 0.884s-0.539 0.366-0.884 0.366h-17.5c-0.345 0-0.656-0.139-0.884-0.366s-0.366-0.539-0.366-0.884v-17.5c0-0.345 0.139-0.656 0.366-0.884s0.539-0.366 0.884-0.366zM10 16.25h10c0.69 0 1.25-0.56 1.25-1.25s-0.56-1.25-1.25-1.25h-10c-0.69 0-1.25 0.56-1.25 1.25s0.56 1.25 1.25 1.25z"></path>
</svg>
