<!-- Generated by IcoMoon.io -->
<svg version="1.1" xmlns="http://www.w3.org/2000/svg" width="30" height="30" viewBox="0 0 30 30">
<title>phone</title>
<path d="M28.75 21.15c0.020-0.893-0.295-1.755-0.841-2.429-0.575-0.707-1.411-1.209-2.406-1.35-1-0.122-2.119-0.392-3.232-0.808-0.541-0.199-1.116-0.272-1.68-0.217-0.829 0.080-1.634 0.436-2.274 1.069l-0.9 0.9c-2.212-1.396-4.2-3.334-5.729-5.736l0.908-0.908c0.403-0.412 0.704-0.908 0.884-1.445 0.265-0.79 0.268-1.67-0.049-2.514-0.361-0.941-0.647-2.055-0.805-3.244-0.13-0.894-0.569-1.684-1.204-2.256-0.674-0.606-1.57-0.973-2.534-0.962h-3.745c-0.11 0-0.227 0.005-0.341 0.015-1.030 0.094-1.928 0.598-2.541 1.333s-0.947 1.709-0.854 2.749c0.375 3.845 1.706 7.804 4.020 11.377 1.877 3.016 4.56 5.779 7.873 7.883 3.21 2.121 7.105 3.578 11.357 4.039 0.115 0.011 0.239 0.016 0.36 0.016 1.035-0.004 1.972-0.429 2.648-1.109s1.091-1.621 1.087-2.651zM26.25 21.15v3.75c0.001 0.35-0.136 0.662-0.362 0.89s-0.536 0.369-0.883 0.37l-0.11-0.005c-3.825-0.416-7.341-1.735-10.217-3.636-3.035-1.929-5.449-4.423-7.127-7.117-2.121-3.275-3.319-6.851-3.655-10.297-0.030-0.335 0.080-0.658 0.286-0.905s0.504-0.413 0.848-0.444l3.859-0.005c0.339-0.004 0.634 0.118 0.859 0.32 0.212 0.193 0.36 0.457 0.404 0.76 0.178 1.34 0.51 2.646 0.946 3.781 0.101 0.27 0.1 0.559 0.013 0.823-0.061 0.181-0.164 0.351-0.302 0.494l-1.577 1.576c-0.405 0.405-0.474 1.018-0.202 1.501 1.98 3.481 4.799 6.196 7.976 7.973 0.496 0.277 1.102 0.18 1.494-0.208l1.588-1.588c0.208-0.205 0.471-0.321 0.748-0.349 0.19-0.019 0.388 0.006 0.574 0.075 1.277 0.476 2.587 0.795 3.793 0.943 0.301 0.043 0.578 0.208 0.769 0.444 0.184 0.226 0.289 0.515 0.283 0.853z"></path>
</svg>
