<!-- Generated by IcoMoon.io -->
<svg version="1.1" xmlns="http://www.w3.org/2000/svg" width="30" height="30" viewBox="0 0 30 30">
<title>play-circle</title>
<path d="M28.75 15c0-3.796-1.54-7.236-4.027-9.722s-5.926-4.027-9.722-4.027-7.236 1.54-9.722 4.027-4.027 5.926-4.027 9.722 1.54 7.236 4.027 9.722 5.926 4.027 9.722 4.027 7.236-1.54 9.722-4.027 4.027-5.926 4.027-9.722zM26.25 15c0 3.107-1.258 5.918-3.295 7.955s-4.847 3.295-7.955 3.295-5.917-1.258-7.955-3.295-3.295-4.847-3.295-7.955 1.258-5.917 3.295-7.955 4.847-3.295 7.955-3.295 5.917 1.258 7.955 3.295 3.295 4.847 3.295 7.955zM13.194 8.96c-0.195-0.131-0.435-0.21-0.694-0.21-0.69 0-1.25 0.56-1.25 1.25v10c-0.001 0.235 0.066 0.479 0.21 0.694 0.382 0.575 1.159 0.73 1.734 0.346l7.5-5c0.129-0.085 0.25-0.203 0.346-0.346 0.383-0.575 0.227-1.35-0.346-1.734zM13.75 12.336l3.996 2.664-3.996 2.664z"></path>
</svg>
