<!-- Generated by IcoMoon.io -->
<svg version="1.1" xmlns="http://www.w3.org/2000/svg" width="30" height="30" viewBox="0 0 30 30">
<title>plus-circle</title>
<path d="M28.75 15c0-3.796-1.54-7.236-4.027-9.722s-5.926-4.027-9.722-4.027-7.236 1.54-9.722 4.027-4.027 5.926-4.027 9.722 1.54 7.236 4.027 9.722 5.926 4.027 9.722 4.027 7.236-1.54 9.722-4.027 4.027-5.926 4.027-9.722zM26.25 15c0 3.107-1.258 5.918-3.295 7.955s-4.847 3.295-7.955 3.295-5.917-1.258-7.955-3.295-3.295-4.847-3.295-7.955 1.258-5.917 3.295-7.955 4.847-3.295 7.955-3.295 5.917 1.258 7.955 3.295 3.295 4.847 3.295 7.955zM10 16.25h3.75v3.75c0 0.69 0.56 1.25 1.25 1.25s1.25-0.56 1.25-1.25v-3.75h3.75c0.69 0 1.25-0.56 1.25-1.25s-0.56-1.25-1.25-1.25h-3.75v-3.75c0-0.69-0.56-1.25-1.25-1.25s-1.25 0.56-1.25 1.25v3.75h-3.75c-0.69 0-1.25 0.56-1.25 1.25s0.56 1.25 1.25 1.25z"></path>
</svg>
