<!-- Generated by IcoMoon.io -->
<svg version="1.1" xmlns="http://www.w3.org/2000/svg" width="30" height="30" viewBox="0 0 30 30">
<title>repeat</title>
<path d="M5 13.75v-2.5c0-1.036 0.419-1.971 1.099-2.651s1.615-1.099 2.651-1.099h14.482l-2.866 2.866c-0.489 0.489-0.489 1.28 0 1.768s1.28 0.489 1.768 0l5-5c0.12-0.12 0.21-0.257 0.271-0.405s0.095-0.309 0.095-0.479c0-0.163-0.031-0.326-0.095-0.479-0.061-0.148-0.151-0.285-0.271-0.405l-5-5c-0.489-0.489-1.28-0.489-1.768 0s-0.489 1.28 0 1.768l2.866 2.866h-14.482c-1.725 0-3.29 0.701-4.42 1.83s-1.83 2.695-1.83 4.42v2.5c0 0.69 0.56 1.25 1.25 1.25s1.25-0.56 1.25-1.25zM25 16.25v2.5c0 1.036-0.419 1.971-1.099 2.651s-1.615 1.099-2.651 1.099h-14.482l2.866-2.866c0.489-0.489 0.489-1.28 0-1.768s-1.28-0.489-1.768 0l-5 5c-0.12 0.12-0.21 0.257-0.271 0.405-0.188 0.452-0.098 0.994 0.271 1.363l5 5c0.489 0.489 1.28 0.489 1.768 0s0.489-1.28 0-1.768l-2.866-2.866h14.482c1.725 0 3.29-0.701 4.42-1.83s1.83-2.695 1.83-4.42v-2.5c0-0.69-0.56-1.25-1.25-1.25s-1.25 0.56-1.25 1.25z"></path>
</svg>
