<!-- Generated by IcoMoon.io -->
<svg version="1.1" xmlns="http://www.w3.org/2000/svg" width="30" height="30" viewBox="0 0 30 30">
<title>search</title>
<path d="M20.051 19.82c-0.043 0.032-0.084 0.069-0.124 0.109s-0.075 0.080-0.109 0.124c-1.573 1.516-3.711 2.447-6.069 2.447-2.416 0-4.603-0.977-6.188-2.563s-2.563-3.771-2.563-6.188 0.977-4.603 2.563-6.188 3.771-2.563 6.188-2.563 4.603 0.977 6.188 2.563 2.563 3.771 2.563 6.188c0 2.357-0.931 4.496-2.449 6.070zM27.134 25.366l-4.594-4.594c1.539-1.925 2.46-4.366 2.46-7.022 0-3.106-1.26-5.92-3.295-7.955s-4.849-3.295-7.955-3.295-5.92 1.26-7.955 3.295-3.295 4.849-3.295 7.955 1.26 5.92 3.295 7.955 4.849 3.295 7.955 3.295c2.656 0 5.098-0.921 7.022-2.46l4.594 4.594c0.489 0.489 1.28 0.489 1.768 0s0.489-1.28 0-1.768z"></path>
</svg>
