<!-- Generated by IcoMoon.io -->
<svg version="1.1" xmlns="http://www.w3.org/2000/svg" width="30" height="30" viewBox="0 0 30 30">
<title>shopping-bag</title>
<path d="M23.75 6.25h-17.5l1.875-2.5h13.75zM27.242 6.74l-3.742-4.99c-0.245-0.326-0.617-0.499-1-0.5h-15c-0.407 0-0.77 0.195-1 0.5l-3.743 4.99c-0.054 0.070-0.101 0.148-0.139 0.229-0.081 0.17-0.12 0.353-0.119 0.531v17.5c0 1.035 0.421 1.975 1.099 2.651s1.616 1.099 2.651 1.099h17.5c1.035 0 1.975-0.421 2.651-1.099s1.099-1.616 1.099-2.651v-17.5c0-0.274-0.089-0.527-0.236-0.731-0.005-0.006-0.009-0.013-0.014-0.019zM5 8.75h20v16.25c0 0.345-0.139 0.656-0.366 0.884s-0.539 0.366-0.884 0.366h-17.5c-0.345 0-0.656-0.139-0.884-0.366s-0.366-0.539-0.366-0.884zM18.75 12.5c0 1.036-0.419 1.971-1.099 2.651s-1.615 1.099-2.651 1.099-1.971-0.419-2.651-1.099-1.099-1.615-1.099-2.651c0-0.69-0.56-1.25-1.25-1.25s-1.25 0.56-1.25 1.25c0 1.725 0.701 3.29 1.83 4.42s2.695 1.83 4.42 1.83 3.29-0.701 4.42-1.83 1.83-2.695 1.83-4.42c0-0.69-0.56-1.25-1.25-1.25s-1.25 0.56-1.25 1.25z"></path>
</svg>
