<!-- Generated by IcoMoon.io -->
<svg version="1.1" xmlns="http://www.w3.org/2000/svg" width="30" height="30" viewBox="0 0 30 30">
<title>shopping-cart</title>
<path d="M13.75 26.25c0-0.69-0.281-1.316-0.733-1.768s-1.078-0.733-1.768-0.733-1.316 0.281-1.768 0.733-0.733 1.078-0.733 1.768 0.281 1.316 0.733 1.768 1.078 0.733 1.768 0.733 1.316-0.281 1.768-0.733 0.733-1.078 0.733-1.768zM27.5 26.25c0-0.69-0.281-1.316-0.733-1.768s-1.078-0.733-1.768-0.733-1.316 0.281-1.768 0.733-0.733 1.078-0.733 1.768 0.281 1.316 0.733 1.768 1.078 0.733 1.768 0.733 1.316-0.281 1.768-0.733 0.733-1.078 0.733-1.768zM9.026 8.75h18.212l-1.714 8.989c-0.058 0.285-0.208 0.531-0.415 0.71-0.225 0.195-0.516 0.308-0.86 0.301h-12.167c-0.29 0.004-0.564-0.089-0.782-0.254-0.238-0.179-0.411-0.439-0.474-0.754zM1.25 2.5h3.975l1.060 5.299c0.135 0.546 0.628 0.951 1.215 0.951h1.526l-0.5-2.5h-1.026c-0.69 0-1.25 0.56-1.25 1.25 0 0.066 0.005 0.131 0.015 0.194 0.005 0.035 0.013 0.071 0.021 0.105l2.089 10.434c0.186 0.939 0.711 1.729 1.425 2.264 0.651 0.49 1.463 0.766 2.318 0.754h12.133c0.935 0.019 1.819-0.326 2.494-0.909 0.617-0.532 1.060-1.266 1.231-2.104l2.002-10.502c0.129-0.679-0.315-1.333-0.994-1.463-0.081-0.016-0.163-0.024-0.234-0.022h-20.225l-1.050-5.245c-0.118-0.577-0.621-1.005-1.225-1.005h-5c-0.69 0-1.25 0.56-1.25 1.25s0.56 1.25 1.25 1.25z"></path>
</svg>
