<!-- Generated by IcoMoon.io -->
<svg version="1.1" xmlns="http://www.w3.org/2000/svg" width="30" height="30" viewBox="0 0 30 30">
<title>star</title>
<path d="M16.121 1.946c-0.115-0.236-0.31-0.44-0.568-0.568-0.619-0.305-1.369-0.051-1.674 0.568l-3.572 7.236-7.989 1.169c-0.26 0.036-0.514 0.159-0.714 0.364-0.482 0.495-0.471 1.286 0.023 1.768l5.779 5.629-1.364 7.952c-0.045 0.259-0.008 0.539 0.126 0.793 0.321 0.611 1.078 0.846 1.689 0.525l7.142-3.756 7.144 3.756c0.233 0.124 0.51 0.174 0.793 0.126 0.68-0.116 1.138-0.763 1.021-1.444l-1.364-7.952 5.779-5.629c0.189-0.182 0.324-0.43 0.365-0.715 0.1-0.683-0.373-1.318-1.056-1.418l-7.988-1.168zM15 5.324l2.741 5.555c0.189 0.381 0.545 0.624 0.94 0.684l6.133 0.896-4.436 4.321c-0.305 0.298-0.426 0.711-0.36 1.106l1.046 6.104-5.482-2.884c-0.376-0.197-0.809-0.185-1.164 0l-5.482 2.884 1.046-6.104c0.073-0.42-0.074-0.826-0.36-1.106l-4.436-4.321 6.134-0.898c0.42-0.061 0.761-0.325 0.94-0.682z"></path>
</svg>
