<!-- Generated by IcoMoon.io -->
<svg version="1.1" xmlns="http://www.w3.org/2000/svg" width="30" height="30" viewBox="0 0 30 30">
<title>sun</title>
<path d="M22.5 15c0-2.071-0.841-3.947-2.196-5.304s-3.233-2.196-5.304-2.196-3.947 0.841-5.304 2.196-2.196 3.232-2.196 5.304 0.841 3.947 2.196 5.304 3.232 2.196 5.304 2.196 3.947-0.841 5.304-2.196 2.196-3.233 2.196-5.304zM20 15c0 1.381-0.559 2.629-1.465 3.535s-2.154 1.465-3.535 1.465-2.629-0.559-3.535-1.465-1.465-2.154-1.465-3.535 0.559-2.629 1.465-3.535 2.154-1.465 3.535-1.465 2.629 0.559 3.535 1.465 1.465 2.154 1.465 3.535zM13.75 1.25v2.5c0 0.69 0.56 1.25 1.25 1.25s1.25-0.56 1.25-1.25v-2.5c0-0.69-0.56-1.25-1.25-1.25s-1.25 0.56-1.25 1.25zM13.75 26.25v2.5c0 0.69 0.56 1.25 1.25 1.25s1.25-0.56 1.25-1.25v-2.5c0-0.69-0.56-1.25-1.25-1.25s-1.25 0.56-1.25 1.25zM4.391 6.159l1.775 1.775c0.489 0.489 1.28 0.489 1.768 0s0.489-1.28 0-1.768l-1.775-1.775c-0.489-0.489-1.28-0.489-1.768 0s-0.489 1.28 0 1.768zM22.066 23.834l1.775 1.775c0.489 0.489 1.28 0.489 1.768 0s0.489-1.28 0-1.768l-1.775-1.775c-0.489-0.489-1.28-0.489-1.768 0s-0.489 1.28 0 1.768zM1.25 16.25h2.5c0.69 0 1.25-0.56 1.25-1.25s-0.56-1.25-1.25-1.25h-2.5c-0.69 0-1.25 0.56-1.25 1.25s0.56 1.25 1.25 1.25zM26.25 16.25h2.5c0.69 0 1.25-0.56 1.25-1.25s-0.56-1.25-1.25-1.25h-2.5c-0.69 0-1.25 0.56-1.25 1.25s0.56 1.25 1.25 1.25zM6.159 25.609l1.775-1.775c0.489-0.489 0.489-1.28 0-1.768s-1.28-0.489-1.768 0l-1.775 1.775c-0.489 0.489-0.489 1.28 0 1.768s1.28 0.489 1.768 0zM23.834 7.934l1.775-1.775c0.489-0.489 0.489-1.28 0-1.768s-1.28-0.489-1.768 0l-1.775 1.775c-0.489 0.489-0.489 1.28 0 1.768s1.28 0.489 1.768 0z"></path>
</svg>
