<!-- Generated by IcoMoon.io -->
<svg version="1.1" xmlns="http://www.w3.org/2000/svg" width="30" height="30" viewBox="0 0 30 30">
<title>thumbs-up</title>
<path d="M7.5 15v11.25h-2.5c-0.345 0-0.656-0.139-0.884-0.366s-0.366-0.539-0.366-0.884v-8.75c0-0.345 0.139-0.656 0.366-0.884s0.539-0.366 0.884-0.366zM18.75 10v-3.75c0-1.38-0.561-2.632-1.465-3.535s-2.155-1.465-3.535-1.465c-0.506 0-0.943 0.301-1.142 0.743l-4.67 10.508h-2.938c-1.035 0-1.975 0.421-2.651 1.099s-1.099 1.616-1.099 2.651v8.75c0 1.035 0.421 1.975 1.099 2.651s1.616 1.099 2.651 1.099h17.85c0.959 0.011 1.852-0.351 2.526-0.954 0.631-0.565 1.071-1.345 1.209-2.229l1.725-11.252c0.156-1.025-0.12-2.018-0.688-2.789s-1.434-1.329-2.456-1.484c-0.206-0.031-0.416-0.046-0.615-0.043zM16.25 11.25c0 0.69 0.56 1.25 1.25 1.25l7.181 0.002 0.11 0.013c0.341 0.051 0.628 0.235 0.819 0.495s0.281 0.587 0.23 0.928l-1.725 11.248c-0.046 0.299-0.195 0.56-0.406 0.75-0.225 0.201-0.519 0.32-0.857 0.316l-12.851-0.001v-12.235l4.51-10.148c0.384 0.122 0.727 0.335 1.007 0.615 0.454 0.454 0.733 1.076 0.733 1.768z"></path>
</svg>
