<!-- Generated by IcoMoon.io -->
<svg version="1.1" xmlns="http://www.w3.org/2000/svg" width="30" height="30" viewBox="0 0 30 30">
<title>toggle-right</title>
<path d="M10 5c-2.761 0-5.263 1.121-7.071 2.929s-2.929 4.31-2.929 7.071 1.121 5.263 2.929 7.071 4.31 2.929 7.071 2.929h10c2.761 0 5.263-1.121 7.071-2.929s2.929-4.31 2.929-7.071-1.121-5.263-2.929-7.071-4.31-2.929-7.071-2.929zM10 7.5h10c2.071 0 3.945 0.838 5.304 2.196s2.196 3.232 2.196 5.304-0.838 3.945-2.196 5.304-3.232 2.196-5.304 2.196h-10c-2.071 0-3.945-0.838-5.304-2.196s-2.196-3.233-2.196-5.304 0.838-3.945 2.196-5.304 3.232-2.196 5.304-2.196zM25 15c0-1.38-0.561-2.633-1.465-3.535s-2.155-1.465-3.535-1.465-2.633 0.561-3.535 1.465-1.465 2.155-1.465 3.535 0.561 2.633 1.465 3.535 2.155 1.465 3.535 1.465 2.633-0.561 3.535-1.465 1.465-2.155 1.465-3.535zM22.5 15c0 0.691-0.279 1.314-0.733 1.768s-1.076 0.733-1.768 0.733-1.314-0.279-1.768-0.733-0.733-1.076-0.733-1.768 0.279-1.314 0.733-1.768 1.076-0.733 1.768-0.733 1.314 0.279 1.768 0.733 0.733 1.076 0.733 1.768z"></path>
</svg>
