<!-- Generated by IcoMoon.io -->
<svg version="1.1" xmlns="http://www.w3.org/2000/svg" width="30" height="30" viewBox="0 0 30 30">
<title>trash-2</title>
<path d="M22.5 8.75v16.25c0 0.345-0.139 0.656-0.366 0.884s-0.539 0.366-0.884 0.366h-12.5c-0.345 0-0.656-0.139-0.884-0.366s-0.366-0.539-0.366-0.884v-16.25zM21.25 6.25v-1.25c0-1.035-0.421-1.975-1.099-2.651s-1.616-1.099-2.651-1.099h-5c-1.035 0-1.975 0.421-2.651 1.099s-1.099 1.616-1.099 2.651v1.25h-5c-0.69 0-1.25 0.56-1.25 1.25s0.56 1.25 1.25 1.25h1.25v16.25c0 1.035 0.421 1.975 1.099 2.651s1.616 1.099 2.651 1.099h12.5c1.035 0 1.975-0.421 2.651-1.099s1.099-1.616 1.099-2.651v-16.25h1.25c0.69 0 1.25-0.56 1.25-1.25s-0.56-1.25-1.25-1.25zM11.25 6.25v-1.25c0-0.345 0.139-0.656 0.366-0.884s0.539-0.366 0.884-0.366h5c0.345 0 0.656 0.139 0.884 0.366s0.366 0.539 0.366 0.884v1.25zM11.25 13.75v7.5c0 0.69 0.56 1.25 1.25 1.25s1.25-0.56 1.25-1.25v-7.5c0-0.69-0.56-1.25-1.25-1.25s-1.25 0.56-1.25 1.25zM16.25 13.75v7.5c0 0.69 0.56 1.25 1.25 1.25s1.25-0.56 1.25-1.25v-7.5c0-0.69-0.56-1.25-1.25-1.25s-1.25 0.56-1.25 1.25z"></path>
</svg>
