<!-- Generated by IcoMoon.io -->
<svg version="1.1" xmlns="http://www.w3.org/2000/svg" width="30" height="30" viewBox="0 0 30 30">
<title>truck</title>
<path d="M18.75 18.75h-16.25v-13.75h16.25v5zM21.25 11.25h3.233l3.017 3.017v4.483h-6.25zM8.75 23.125c0 0.518-0.209 0.985-0.549 1.326s-0.809 0.549-1.326 0.549-0.985-0.209-1.326-0.549-0.549-0.809-0.549-1.326 0.209-0.985 0.549-1.326 0.809-0.549 1.326-0.549 0.985 0.209 1.326 0.549 0.549 0.809 0.549 1.326zM27.5 23.125c0-0.671-0.151-1.306-0.421-1.875h1.671c0.69 0 1.25-0.56 1.25-1.25v-6.25c0-0.32-0.122-0.64-0.366-0.884l-3.75-3.75c-0.226-0.226-0.539-0.366-0.884-0.366h-3.75v-5c0-0.69-0.56-1.25-1.25-1.25h-18.75c-0.69 0-1.25 0.56-1.25 1.25v16.25c0 0.69 0.56 1.25 1.25 1.25h1.671c-0.27 0.569-0.421 1.204-0.421 1.875 0 1.208 0.491 2.304 1.281 3.094s1.886 1.281 3.094 1.281 2.304-0.491 3.094-1.281 1.281-1.886 1.281-3.094c0-0.671-0.151-1.306-0.421-1.875h8.342c-0.27 0.569-0.421 1.204-0.421 1.875 0 1.208 0.491 2.304 1.281 3.094s1.886 1.281 3.094 1.281 2.304-0.491 3.094-1.281 1.281-1.886 1.281-3.094zM25 23.125c0 0.518-0.209 0.985-0.549 1.326s-0.809 0.549-1.326 0.549-0.985-0.209-1.326-0.549-0.549-0.809-0.549-1.326 0.209-0.985 0.549-1.326 0.809-0.549 1.326-0.549 0.985 0.209 1.326 0.549 0.549 0.809 0.549 1.326z"></path>
</svg>
