<!-- Generated by IcoMoon.io -->
<svg version="1.1" xmlns="http://www.w3.org/2000/svg" width="30" height="30" viewBox="0 0 30 30">
<title>tv</title>
<path d="M5 10h20c0.345 0 0.656 0.139 0.884 0.366s0.366 0.539 0.366 0.884v13.75c0 0.345-0.139 0.656-0.366 0.884s-0.539 0.366-0.884 0.366h-20c-0.345 0-0.656-0.139-0.884-0.366s-0.366-0.539-0.366-0.884v-13.75c0-0.345 0.139-0.656 0.366-0.884s0.539-0.366 0.884-0.366zM20.366 1.616l-5.366 5.366-5.366-5.366c-0.489-0.489-1.28-0.489-1.768 0s-0.489 1.28 0 1.768l4.116 4.116h-6.982c-1.035 0-1.975 0.421-2.651 1.099s-1.099 1.616-1.099 2.651v13.75c0 1.035 0.421 1.975 1.099 2.651s1.616 1.099 2.651 1.099h20c1.035 0 1.975-0.421 2.651-1.099s1.099-1.616 1.099-2.651v-13.75c0-1.035-0.421-1.975-1.099-2.651s-1.616-1.099-2.651-1.099h-6.982l4.116-4.116c0.489-0.489 0.489-1.28 0-1.768s-1.28-0.489-1.768 0z"></path>
</svg>
