<!-- Generated by IcoMoon.io -->
<svg version="1.1" xmlns="http://www.w3.org/2000/svg" width="30" height="30" viewBox="0 0 30 30">
<title>twitter</title>
<path d="M26.041 6.577c-0.233 0.302-0.489 0.594-0.77 0.87-0.291 0.29-0.434 0.709-0.347 1.135 0.046 0.227 0.075 0.505 0.076 0.793 0 6.57-3.036 11.214-7.262 13.622-3.309 1.886-7.423 2.444-11.527 1.4 1.556-0.451 3.075-1.151 4.491-2.113 0.184-0.124 0.341-0.304 0.44-0.526 0.28-0.631-0.004-1.37-0.635-1.65-3.467-1.541-5.162-3.664-5.961-5.741-0.521-1.355-0.683-2.747-0.65-4.034 0.026-1.014 0.173-1.95 0.347-2.728 0.494 0.428 1.005 0.881 1.545 1.296 2.564 1.971 5.78 3.1 9.245 3.010 0.676-0.019 1.217-0.571 1.217-1.25v-1.264c-0.002-0.224 0.011-0.446 0.043-0.667 0.141-1.007 0.63-1.961 1.453-2.676 0.906-0.789 2.045-1.135 3.157-1.058s2.191 0.579 2.98 1.485c0.315 0.358 0.811 0.52 1.291 0.38 0.289-0.084 0.579-0.179 0.869-0.285zM28.030 2.729c-0.925 0.653-1.904 1.157-2.859 1.506-1.164-1.045-2.614-1.627-4.095-1.731-1.748-0.121-3.545 0.424-4.971 1.665-1.295 1.126-2.065 2.634-2.287 4.215-0.046 0.331-0.069 0.666-0.068 1-2.402-0.178-4.618-1.063-6.439-2.464-0.969-0.745-1.826-1.636-2.542-2.644-0.4-0.563-1.18-0.696-1.742-0.296-0.193 0.136-0.334 0.316-0.419 0.511 0 0-0.165 0.374-0.356 0.95-0.14 0.421-0.301 0.969-0.446 1.612-0.204 0.902-0.377 2.003-0.407 3.214-0.039 1.534 0.15 3.265 0.815 4.995 0.854 2.219 2.458 4.348 5.184 6.029-1.961 0.907-4.056 1.299-6.091 1.209-0.69-0.030-1.274 0.504-1.304 1.194-0.021 0.486 0.238 0.92 0.641 1.147 6.131 3.406 13.033 3.347 18.332 0.326 5.051-2.876 8.525-8.375 8.525-15.793-0.001-0.209-0.010-0.412-0.029-0.611 1.258-1.394 2.095-3.036 2.495-4.726 0.159-0.671-0.257-1.345-0.929-1.504-0.362-0.086-0.725-0.004-1.009 0.195z"></path>
</svg>
