<!-- Generated by IcoMoon.io -->
<svg version="1.1" xmlns="http://www.w3.org/2000/svg" width="30" height="30" viewBox="0 0 30 30">
<title>unlock</title>
<path d="M6.25 15h17.5c0.345 0 0.656 0.139 0.884 0.366s0.366 0.539 0.366 0.884v8.75c0 0.345-0.139 0.656-0.366 0.884s-0.539 0.366-0.884 0.366h-17.5c-0.345 0-0.656-0.139-0.884-0.366s-0.366-0.539-0.366-0.884v-8.75c0-0.345 0.139-0.656 0.366-0.884s0.539-0.366 0.884-0.366zM10 12.5v-3.75c-0.001-1.382 0.556-2.631 1.461-3.539s2.152-1.466 3.534-1.468c1.269-0.001 2.424 0.469 3.306 1.25 0.797 0.706 1.371 1.665 1.6 2.761 0.141 0.676 0.803 1.11 1.479 0.969s1.11-0.803 0.969-1.479c-0.34-1.634-1.198-3.067-2.39-4.123-1.325-1.172-3.065-1.88-4.966-1.879-2.071 0.002-3.946 0.845-5.301 2.203s-2.194 3.234-2.191 5.304v3.75h-1.25c-1.035 0-1.975 0.421-2.651 1.099s-1.099 1.616-1.099 2.651v8.75c0 1.035 0.421 1.975 1.099 2.651s1.616 1.099 2.651 1.099h17.5c1.035 0 1.975-0.421 2.651-1.099s1.099-1.616 1.099-2.651v-8.75c0-1.035-0.421-1.975-1.099-2.651s-1.616-1.099-2.651-1.099z"></path>
</svg>
