<!-- Generated by IcoMoon.io -->
<svg version="1.1" xmlns="http://www.w3.org/2000/svg" width="30" height="30" viewBox="0 0 30 30">
<title>user</title>
<path d="M26.25 26.25v-2.5c0-1.725-0.701-3.29-1.83-4.42s-2.695-1.83-4.42-1.83h-10c-1.725 0-3.29 0.701-4.42 1.83s-1.83 2.695-1.83 4.42v2.5c0 0.69 0.56 1.25 1.25 1.25s1.25-0.56 1.25-1.25v-2.5c0-1.036 0.419-1.971 1.099-2.651s1.615-1.099 2.651-1.099h10c1.036 0 1.971 0.419 2.651 1.099s1.099 1.615 1.099 2.651v2.5c0 0.69 0.56 1.25 1.25 1.25s1.25-0.56 1.25-1.25zM21.25 8.75c0-1.725-0.701-3.29-1.83-4.42s-2.695-1.83-4.42-1.83-3.29 0.701-4.42 1.83-1.83 2.695-1.83 4.42 0.701 3.29 1.83 4.42 2.695 1.83 4.42 1.83 3.29-0.701 4.42-1.83 1.83-2.695 1.83-4.42zM18.75 8.75c0 1.036-0.419 1.971-1.099 2.651s-1.615 1.099-2.651 1.099-1.971-0.419-2.651-1.099-1.099-1.615-1.099-2.651 0.419-1.971 1.099-2.651 1.615-1.099 2.651-1.099 1.971 0.419 2.651 1.099 1.099 1.615 1.099 2.651z"></path>
</svg>
