<!-- Generated by IcoMoon.io -->
<svg version="1.1" xmlns="http://www.w3.org/2000/svg" width="30" height="30" viewBox="0 0 30 30">
<title>users</title>
<path d="M22.5 26.25v-2.5c0-1.725-0.701-3.29-1.83-4.42s-2.695-1.83-4.42-1.83h-10c-1.725 0-3.29 0.701-4.42 1.83s-1.83 2.695-1.83 4.42v2.5c0 0.69 0.56 1.25 1.25 1.25s1.25-0.56 1.25-1.25v-2.5c0-1.036 0.419-1.971 1.099-2.651s1.615-1.099 2.651-1.099h10c1.036 0 1.971 0.419 2.651 1.099s1.099 1.615 1.099 2.651v2.5c0 0.69 0.56 1.25 1.25 1.25s1.25-0.56 1.25-1.25zM17.5 8.75c0-1.725-0.701-3.29-1.83-4.42s-2.695-1.83-4.42-1.83-3.29 0.701-4.42 1.83-1.83 2.695-1.83 4.42 0.701 3.29 1.83 4.42 2.695 1.83 4.42 1.83 3.29-0.701 4.42-1.83 1.83-2.695 1.83-4.42zM15 8.75c0 1.036-0.419 1.971-1.099 2.651s-1.615 1.099-2.651 1.099-1.971-0.419-2.651-1.099-1.099-1.615-1.099-2.651 0.419-1.971 1.099-2.651 1.615-1.099 2.651-1.099 1.971 0.419 2.651 1.099 1.099 1.615 1.099 2.651zM30 26.25v-2.5c-0.001-1.556-0.571-2.981-1.52-4.076-0.815-0.941-1.91-1.639-3.161-1.97-0.668-0.176-1.351 0.221-1.528 0.889s0.221 1.351 0.889 1.528c0.759 0.201 1.42 0.623 1.91 1.19 0.569 0.658 0.909 1.508 0.91 2.44v2.5c0 0.69 0.56 1.25 1.25 1.25s1.25-0.56 1.25-1.25zM19.69 5.124c1.004 0.257 1.806 0.894 2.296 1.721s0.664 1.837 0.406 2.841c-0.22 0.859-0.719 1.57-1.381 2.065-0.392 0.294-0.844 0.512-1.329 0.639-0.668 0.175-1.067 0.859-0.891 1.526s0.859 1.067 1.526 0.891c0.796-0.209 1.54-0.569 2.191-1.055 1.104-0.825 1.94-2.016 2.306-3.448 0.427-1.671 0.137-3.361-0.677-4.735s-2.156-2.441-3.827-2.87c-0.669-0.171-1.35 0.233-1.521 0.901s0.233 1.35 0.901 1.521z"></path>
</svg>
