<!-- Generated by IcoMoon.io -->
<svg version="1.1" xmlns="http://www.w3.org/2000/svg" width="30" height="30" viewBox="0 0 30 30">
<title>youtube</title>
<path d="M26.954 8.296c0.359 1.911 0.56 4.119 0.546 6.406 0.024 1.91-0.154 4.084-0.546 6.276-0.071 0.26-0.187 0.504-0.34 0.719-0.284 0.401-0.698 0.706-1.186 0.844-0.755 0.201-2.695 0.344-4.846 0.426-2.788 0.107-5.581 0.107-5.581 0.107s-2.794 0-5.581-0.106c-2.151-0.083-4.091-0.224-4.832-0.422-0.256-0.071-0.495-0.185-0.707-0.335-0.389-0.275-0.689-0.67-0.838-1.154-0.356-1.907-0.555-4.108-0.541-6.388-0.026-1.925 0.151-4.115 0.546-6.325 0.071-0.26 0.188-0.504 0.34-0.719 0.284-0.401 0.697-0.706 1.186-0.844 0.755-0.201 2.695-0.344 4.846-0.426 2.788-0.106 5.581-0.106 5.581-0.106s2.794 0 5.582 0.098c2.149 0.075 4.103 0.204 4.82 0.379 0.274 0.079 0.526 0.206 0.748 0.374 0.384 0.29 0.673 0.701 0.804 1.198zM29.387 7.721c-0.271-1.082-0.898-1.987-1.729-2.616-0.466-0.353-0.995-0.617-1.561-0.781-1.123-0.275-3.37-0.404-5.428-0.475-2.834-0.099-5.67-0.099-5.67-0.099s-2.84 0-5.676 0.109c-2.053 0.079-4.312 0.219-5.396 0.509-1.093 0.309-1.976 0.962-2.58 1.813-0.337 0.476-0.586 1.014-0.734 1.585-0.007 0.030-0.014 0.061-0.019 0.089-0.429 2.372-0.624 4.741-0.595 6.851-0.015 2.405 0.201 4.789 0.596 6.877 0.007 0.039 0.016 0.077 0.026 0.11 0.306 1.075 0.962 1.959 1.814 2.56 0.446 0.315 0.946 0.553 1.476 0.701 1.099 0.294 3.358 0.434 5.41 0.512 2.837 0.109 5.678 0.109 5.678 0.109s2.84 0 5.676-0.109c2.053-0.079 4.311-0.219 5.396-0.509 1.091-0.309 1.976-0.962 2.579-1.813 0.337-0.476 0.587-1.014 0.734-1.584 0.007-0.031 0.015-0.062 0.019-0.089 0.425-2.355 0.62-4.706 0.595-6.8 0.015-2.406-0.201-4.791-0.596-6.88-0.005-0.025-0.010-0.050-0.015-0.071zM13.438 16.626v-3.877l3.409 1.939zM12.805 19.861l7.187-4.087c0.6-0.341 0.81-1.105 0.469-1.705-0.116-0.205-0.283-0.365-0.469-0.469l-7.187-4.088c-0.6-0.341-1.364-0.131-1.705 0.469-0.112 0.197-0.165 0.412-0.164 0.617v8.175c0 0.69 0.56 1.25 1.25 1.25 0.227 0 0.44-0.061 0.617-0.164z"></path>
</svg>
